<svg width="203" height="49" viewBox="0 0 203 49" fill="none" xmlns="http://www.w3.org/2000/svg">
<path d="M54.4541 0.288142C57.2944 0.288142 59.4966 2.49037 59.4966 5.22772C59.4966 7.96507 57.2944 10.1673 54.4541 10.1673H52.2931V14.6952H49V0.288142H54.4541ZM54.4541 7.08006C55.4626 7.08006 56.2036 6.27738 56.2036 5.22772C56.2036 4.17806 55.4626 3.37538 54.4541 3.37538H52.2931V7.08006H54.4541Z" fill="#2D31FA"/>
<path d="M66.594 14.9834C63.4245 14.9834 61.037 13.131 61.037 10.0438V0.288142H64.3301V9.75567C64.3301 10.8465 64.8446 11.7727 66.594 11.7727C68.3435 11.7727 68.858 10.8465 68.858 9.75567V0.288142H72.1511V10.0438C72.1511 13.131 69.7636 14.9834 66.594 14.9834Z" fill="#2D31FA"/>
<path d="M83.4584 7.22414C84.5286 7.90333 85.2284 9.01473 85.2284 10.476C85.2284 13.0281 83.1497 14.6952 80.577 14.6952H74.526V0.288142H80.1653C82.6763 0.288142 84.7139 1.91409 84.7139 4.40446C84.7139 5.59819 84.2405 6.54494 83.4584 7.22414ZM80.1653 3.37538H77.819V5.9275H80.1653C80.9063 5.9275 81.4208 5.39237 81.4208 4.65144C81.4208 3.9105 80.9269 3.37538 80.1653 3.37538ZM80.577 11.608C81.4002 11.608 81.9354 11.0317 81.9354 10.229C81.9354 9.42636 81.4002 8.85008 80.577 8.85008H77.819V11.608H80.577Z" fill="#2D31FA"/>
<path d="M90.1599 11.5257H95.3053V14.6952H86.8669V0.288142H90.1599V11.5257Z" fill="#2D31FA"/>
<path d="M96.7557 0.288142H100.049V14.6952H96.7557V0.288142Z" fill="#2D31FA"/>
<path d="M109.398 14.9834C105.056 14.9834 101.907 11.7315 101.907 7.4917C101.907 3.25189 105.056 0 109.398 0C112.012 0 114.317 1.29664 115.573 3.33422L112.733 4.98074C112.095 3.86934 110.86 3.21073 109.398 3.21073C106.846 3.21073 105.2 4.919 105.2 7.4917C105.2 10.0644 106.846 11.7727 109.398 11.7727C110.86 11.7727 112.115 11.1141 112.733 10.0026L115.573 11.6492C114.338 13.6868 112.033 14.9834 109.398 14.9834Z" fill="#2D31FA"/>
<path d="M126.275 14.6952L125.555 12.4313H120.203L119.483 14.6952H115.881L120.78 0.288142H124.978L129.877 14.6952H126.275ZM121.191 9.34404H124.567L122.879 4.05457L121.191 9.34404Z" fill="#2D31FA"/>
<path d="M137.457 14.9834C133.114 14.9834 129.965 11.7315 129.965 7.4917C129.965 3.25189 133.114 0 137.457 0C140.071 0 142.376 1.29664 143.631 3.33422L140.791 4.98074C140.153 3.86934 138.918 3.21073 137.457 3.21073C134.905 3.21073 133.258 4.919 133.258 7.4917C133.258 10.0644 134.905 11.7727 137.457 11.7727C138.918 11.7727 140.174 11.1141 140.791 10.0026L143.631 11.6492C142.396 13.6868 140.091 14.9834 137.457 14.9834Z" fill="#2D31FA"/>
<path d="M145.175 0.288142H148.468V14.6952H145.175V0.288142Z" fill="#2D31FA"/>
<path d="M157.817 14.9834C153.68 14.9834 150.326 11.7315 150.326 7.4917C150.326 3.25189 153.68 0 157.817 0C161.954 0 165.309 3.25189 165.309 7.4917C165.309 11.7315 161.954 14.9834 157.817 14.9834ZM157.817 11.7727C160.164 11.7727 162.016 10.0644 162.016 7.4917C162.016 4.919 160.164 3.21073 157.817 3.21073C155.471 3.21073 153.619 4.919 153.619 7.4917C153.619 10.0644 155.471 11.7727 157.817 11.7727Z" fill="#2D31FA"/>
<path d="M175.19 0.288142H178.483V14.6952H176.013L170.456 6.87425V14.6952H167.163V0.288142H169.633L175.19 8.10914V0.288142Z" fill="#2D31FA"/>
<path d="M184.244 11.5257H190.007V14.6952H180.951V0.288142H189.904V3.45771H184.244V5.84517H189.39V8.97357H184.244V11.5257Z" fill="#2D31FA"/>
<path d="M196.908 14.9834C193.882 14.9834 191.947 13.5427 191.145 11.4228L193.985 9.77625C194.5 10.97 195.385 11.7727 197.011 11.7727C198.575 11.7727 198.966 11.1552 198.966 10.5995C198.966 9.71451 198.142 9.36462 195.981 8.76775C193.841 8.17089 191.742 7.14181 191.742 4.38388C191.742 1.60536 194.088 0 196.578 0C198.945 0 200.798 1.13199 201.847 3.25189L199.069 4.87783C198.575 3.84876 197.896 3.21073 196.578 3.21073C195.549 3.21073 195.035 3.72527 195.035 4.30155C195.035 4.96016 195.385 5.41296 197.628 6.09215C199.81 6.75076 202.259 7.51228 202.259 10.5584C202.259 13.3369 200.036 14.9834 196.908 14.9834Z" fill="#2D31FA"/>
<path d="M61.8724 46.9584C54.4106 46.9584 49 41.1979 49 33.6875C49 26.1771 54.4106 20.4167 61.8724 20.4167C66.3635 20.4167 70.3243 22.7136 72.4814 26.3229L67.6013 29.2396C66.505 27.2709 64.3832 26.1042 61.8724 26.1042C57.4873 26.1042 54.6582 29.1302 54.6582 33.6875C54.6582 38.2448 57.4873 41.2709 61.8724 41.2709C64.3832 41.2709 66.5404 40.1042 67.6013 38.1354L72.4814 41.0521C70.3596 44.6615 66.3989 46.9584 61.8724 46.9584Z" fill="#2D31FA"/>
<path d="M86.5993 46.9584C79.4912 46.9584 73.7269 41.1979 73.7269 33.6875C73.7269 26.1771 79.4912 20.4167 86.5993 20.4167C93.7073 20.4167 99.4716 26.1771 99.4716 33.6875C99.4716 41.1979 93.7073 46.9584 86.5993 46.9584ZM86.5993 41.2709C90.6307 41.2709 93.8134 38.2448 93.8134 33.6875C93.8134 29.1302 90.6307 26.1042 86.5993 26.1042C82.5678 26.1042 79.3851 29.1302 79.3851 33.6875C79.3851 38.2448 82.5678 41.2709 86.5993 41.2709Z" fill="#2D31FA"/>
<path d="M127.412 20.9271V46.4479H121.754V31.6094L115.353 42.4375H114.716L108.316 31.6094V46.4479H102.657V20.9271H108.316L115.035 32.2656L121.754 20.9271H127.412Z" fill="#2D31FA"/>
<path d="M139.985 46.9584C134.787 46.9584 131.463 44.4063 130.084 40.6511L134.964 37.7344C135.848 39.849 137.368 41.2709 140.162 41.2709C142.85 41.2709 143.522 40.1771 143.522 39.1927C143.522 37.625 142.107 37.0052 138.394 35.9479C134.716 34.8906 131.109 33.0677 131.109 28.1823C131.109 23.2604 135.141 20.4167 139.42 20.4167C143.486 20.4167 146.669 22.4219 148.473 26.1771L143.699 29.0573C142.85 27.2344 141.683 26.1042 139.42 26.1042C137.651 26.1042 136.767 27.0156 136.767 28.0365C136.767 29.2031 137.368 30.0052 141.223 31.2084C144.972 32.375 149.18 33.724 149.18 39.1198C149.18 44.0417 145.361 46.9584 139.985 46.9584Z" fill="#2D31FA"/>
<path d="M163.646 46.9584C156.538 46.9584 150.774 41.1979 150.774 33.6875C150.774 26.1771 156.538 20.4167 163.646 20.4167C170.754 20.4167 176.519 26.1771 176.519 33.6875C176.519 41.1979 170.754 46.9584 163.646 46.9584ZM163.646 41.2709C167.678 41.2709 170.861 38.2448 170.861 33.6875C170.861 29.1302 167.678 26.1042 163.646 26.1042C159.615 26.1042 156.432 29.1302 156.432 33.6875C156.432 38.2448 159.615 41.2709 163.646 41.2709Z" fill="#2D31FA"/>
<path d="M191.516 46.9584C184.054 46.9584 178.644 41.1979 178.644 33.6875C178.644 26.1771 184.054 20.4167 191.516 20.4167C196.007 20.4167 199.968 22.7136 202.125 26.3229L197.245 29.2396C196.149 27.2709 194.027 26.1042 191.516 26.1042C187.131 26.1042 184.302 29.1302 184.302 33.6875C184.302 38.2448 187.131 41.2709 191.516 41.2709C194.027 41.2709 196.184 40.1042 197.245 38.1354L202.125 41.0521C200.003 44.6615 196.042 46.9584 191.516 46.9584Z" fill="#2D31FA"/>
<path fill-rule="evenodd" clip-rule="evenodd" d="M8.16667 4.08333C5.9115 4.08333 4.08333 5.9115 4.08333 8.16667V33.7591C5.28454 33.0644 6.67916 32.6667 8.16667 32.6667H36.75V4.08333H8.16667ZM36.75 36.75H8.16667C5.9115 36.75 4.08333 38.5782 4.08333 40.8333C4.08333 43.0884 5.9115 44.9167 8.16667 44.9167H36.75V36.75ZM0 40.8333V8.16667C0 3.65635 3.65635 0 8.16667 0H38.7917L40.8333 2.04167V49H8.16667C3.65635 49 0 45.3438 0 40.8333Z" fill="#2D31FA"/>
</svg>
