<svg xmlns="http://www.w3.org/2000/svg" viewBox="0 0 113.36 51.03"><title>Recurso 2</title><g id="Capa_2" data-name="Capa 2"><g id="Capa_1-2" data-name="Capa 1"><text transform="translate(34.62 25.89)" style="font-size:10.08077335357666px;fill:#dff6ff;font-family:Gilroy-ExtraBold, Gilroy;font-weight:800">PUBLI<tspan x="26.21" y="0" style="letter-spacing:-0.009977998113042794em">C</tspan><tspan x="33.36" y="0" style="letter-spacing:-0.024993432166650884em">A</tspan><tspan x="39.96" y="0" style="letter-spacing:-0.009977998113042794em">C</tspan><tspan x="47.11" y="0">IONES</tspan></text><text transform="translate(8.86 44.76)" style="font-size:23.2009220123291px;fill:#dff6ff;font-family:Gilroy-ExtraBold, Gilroy;font-weight:800">C<tspan x="16.68" y="0" style="letter-spacing:0.019993480744148803em">O</tspan><tspan x="35.43" y="0" style="letter-spacing:0.010017786141278769em">M</tspan><tspan x="54.68" y="0" style="letter-spacing:0.015026679211918153em">S</tspan><tspan x="68.61" y="0" style="letter-spacing:0.019993480744148803em">OC</tspan></text><path d="M0,7.56a1.63,1.63,0,0,1,1.11-1Q10.29,3.38,19.47.12a1.9,1.9,0,0,1,1.33,0l18.4,6.5a2.37,2.37,0,0,1,.54.23A1.09,1.09,0,0,1,40.27,8a1.14,1.14,0,0,1-.82,1L35.68,10.3c-1.1.39-2.2.8-3.3,1.17A.48.48,0,0,0,32,12c0,2.32,0,4.64,0,7a2.49,2.49,0,0,1-1,2.1A9.07,9.07,0,0,1,28,22.51a27,27,0,0,1-10.3,1,21.14,21.14,0,0,1-6.57-1.44,10.77,10.77,0,0,1-2-1.18,2.12,2.12,0,0,1-.85-1.86c0-2.34,0-4.69,0-7a.48.48,0,0,0-.39-.55c-.9-.29-1.78-.62-2.69-1,0,.16,0,.27,0,.38,0,3.31,0,6.61,0,9.91a.48.48,0,0,0,.31.51,3.54,3.54,0,0,1,0,6.44.38.38,0,0,0-.26.41c0,1.35,0,14.2,0,15.55A1.2,1.2,0,0,1,4,45.05a1.21,1.21,0,0,1-1.19-1.33c0-1.35,0-14.2,0-15.55a.39.39,0,0,0-.26-.41,3.54,3.54,0,0,1,0-6.46.4.4,0,0,0,.27-.41c0-3.64,0-7.29,0-10.93a.35.35,0,0,0-.29-.39c-.48-.15-.95-.36-1.44-.5A1.58,1.58,0,0,1,0,8.11Zm4.74.27L5,8l14.8,5.26a1.13,1.13,0,0,0,.63,0L32.86,8.8l2.67-1-.46-.18L20.56,2.54a1.13,1.13,0,0,0-.83,0L9.4,6.18Zm5.95,4.64a1.29,1.29,0,0,0,0,.19c0,2.08,0,4.17,0,6.25a.59.59,0,0,0,.3.45,16.84,16.84,0,0,0,2.41,1,25.21,25.21,0,0,0,12.56.27,11.51,11.51,0,0,0,3.34-1.24.65.65,0,0,0,.36-.63c0-1.95,0-3.9,0-5.86,0-.13,0-.27,0-.44l-.46.16c-2.79,1-5.58,2-8.36,3a1.82,1.82,0,0,1-1.3,0c-2.09-.76-4.19-1.5-6.29-2.24ZM5.2,24.55a1.19,1.19,0,0,0-2.37-.05A1.2,1.2,0,0,0,4,25.72,1.21,1.21,0,0,0,5.2,24.55Z" style="fill:#dff6ff"/></g></g></svg>